<svg width="448" height="512" viewBox="0 0 448 512" fill="none" xmlns="http://www.w3.org/2000/svg">
<g clip-path="url(#clip0_505_10)">
<path d="M224 0C206.3 0 192 14.3 192 32V51.2C119 66 63.9999 130.6 63.9999 208V226.8C63.9999 273.8 46.6999 319.2 15.4999 354.4L8.0999 362.7C-0.300098 372.1 -2.3001 385.6 2.7999 397.1C7.8999 408.6 19.3999 416 31.9999 416H416C428.6 416 440 408.6 445.2 397.1C450.4 385.6 448.3 372.1 439.9 362.7L432.5 354.4C401.3 319.2 384 273.9 384 226.8V208C384 130.6 329 66 256 51.2V32C256 14.3 241.7 0 224 0ZM269.3 493.3C281.3 481.3 288 465 288 448H224H160C160 465 166.7 481.3 178.7 493.3C190.7 505.3 207 512 224 512C241 512 257.3 505.3 269.3 493.3Z" fill="white"/>
</g>
<defs>
<clipPath id="clip0_505_10">
<rect width="448" height="512" fill="white"/>
</clipPath>
</defs>
</svg>
