<svg width="512" height="512" viewBox="0 0 512 512" fill="none" xmlns="http://www.w3.org/2000/svg">
<g clip-path="url(#clip0_505_30)">
<path d="M336 352C433.2 352 512 273.2 512 176C512 78.8 433.2 0 336 0C238.8 0 160 78.8 160 176C160 194.7 162.9 212.8 168.3 229.7L7 391C2.5 395.5 0 401.6 0 408V488C0 501.3 10.7 512 24 512H104C117.3 512 128 501.3 128 488V448H168C181.3 448 192 437.3 192 424V384H232C238.4 384 244.5 381.5 249 377L282.3 343.7C299.2 349.1 317.3 352 336 352ZM376 96C386.609 96 396.783 100.214 404.284 107.716C411.786 115.217 416 125.391 416 136C416 146.609 411.786 156.783 404.284 164.284C396.783 171.786 386.609 176 376 176C365.391 176 355.217 171.786 347.716 164.284C340.214 156.783 336 146.609 336 136C336 125.391 340.214 115.217 347.716 107.716C355.217 100.214 365.391 96 376 96Z" fill="white"/>
</g>
<defs>
<clipPath id="clip0_505_30">
<rect width="512" height="512" fill="white"/>
</clipPath>
</defs>
</svg>
