<svg width="512" height="512" viewBox="0 0 512 512" fill="none" xmlns="http://www.w3.org/2000/svg">
<g clip-path="url(#clip0_505_38)">
<path d="M403.8 34.4C415.8 29.4 429.5 32.2 438.7 41.3L502.7 105.3C508.7 111.3 512.1 119.4 512.1 127.9C512.1 136.4 508.7 144.5 502.7 150.5L438.7 214.5C429.5 223.7 415.8 226.4 403.8 221.4C391.8 216.4 384 204.8 384 191.8V160H352C341.9 160 332.4 164.7 326.4 172.8L284 229.3L244 176L275.2 134.4C293.3 110.2 321.8 96 352 96H384V64C384 51.1 391.8 39.4 403.8 34.4ZM164 282.7L204 336L172.8 377.6C154.7 401.8 126.2 416 96 416H32C14.3 416 0 401.7 0 384C0 366.3 14.3 352 32 352H96C106.1 352 115.6 347.3 121.6 339.2L164 282.7ZM438.6 470.7C429.4 479.9 415.7 482.6 403.7 477.6C391.7 472.6 383.9 461 383.9 448V416H352C321.8 416 293.3 401.8 275.2 377.6L121.6 172.8C115.6 164.7 106.1 160 96 160H32C14.3 160 0 145.7 0 128C0 110.3 14.3 96 32 96H96C126.2 96 154.7 110.2 172.8 134.4L326.4 339.2C332.4 347.3 341.9 352 352 352H384V320C384 307.1 391.8 295.4 403.8 290.4C415.8 285.4 429.5 288.2 438.7 297.3L502.7 361.3C508.7 367.3 512.1 375.4 512.1 383.9C512.1 392.4 508.7 400.5 502.7 406.5L438.7 470.5L438.6 470.7Z" fill="white"/>
</g>
<defs>
<clipPath id="clip0_505_38">
<rect width="512" height="512" fill="white"/>
</clipPath>
</defs>
</svg>
