<svg width="384" height="512" viewBox="0 0 384 512" fill="none" xmlns="http://www.w3.org/2000/svg">
<g clip-path="url(#clip0_505_36)">
<path d="M95.9999 32C113.7 32 128 46.3 128 64V99.3L247.2 65.2C264.2 60.3 281.9 70.2 286.8 87.2C291.7 104.2 281.8 121.9 264.8 126.8L128 165.9V195.3L247.2 161.2C264.2 156.3 281.9 166.2 286.8 183.2C291.7 200.2 281.8 217.9 264.8 222.8L128 261.9V416H191.8C260 416 316.2 362.5 319.6 294.4L320 286.4C320.9 268.7 335.9 255.2 353.6 256C371.3 256.8 384.8 271.9 384 289.6L383.6 297.6C378.5 399.8 294.1 480 191.8 480H95.9999C78.2999 480 63.9999 465.7 63.9999 448V280.1L40.7999 286.7C23.7999 291.6 6.09993 281.7 1.19993 264.7C-3.70007 247.7 6.19993 230 23.1999 225.1L63.9999 213.6V184.1L40.7999 190.7C23.7999 195.6 6.09993 185.7 1.19993 168.7C-3.70007 151.7 6.19993 134 23.1999 129.1L63.9999 117.6V64C63.9999 46.3 78.2999 32 95.9999 32Z" fill="white"/>
</g>
<defs>
<clipPath id="clip0_505_36">
<rect width="384" height="512" fill="white"/>
</clipPath>
</defs>
</svg>
