<svg width="188" height="46" viewBox="0 0 188 46" fill="none" xmlns="http://www.w3.org/2000/svg">
<path d="M68.4483 19.758C67.7518 20.9839 66.7209 21.9869 65.3 22.7391C63.8791 23.4914 62.1238 23.8814 60.0342 23.8814H56.1616V33.1034H49.8928V7.41553H60.0342C62.096 7.41553 63.8234 7.77772 65.2443 8.47425C66.6652 9.17077 67.7239 10.1459 68.4204 11.3997C69.117 12.6534 69.4791 14.0743 69.4791 15.6903C69.4791 17.1669 69.1448 18.5321 68.4483 19.758ZM62.2353 18.0585C62.8204 17.5012 63.1268 16.6933 63.1268 15.6903C63.1268 14.6873 62.8204 13.8793 62.2353 13.3221C61.6502 12.7649 60.7586 12.4862 59.5606 12.4862H56.1616V18.9221H59.5606C60.7586 18.8943 61.6502 18.6157 62.2353 18.0585Z" fill="white"/>
<path d="M72.6831 17.3338C73.4632 15.7457 74.5498 14.5198 75.915 13.684C77.2802 12.8203 78.8126 12.4023 80.4842 12.4023C81.933 12.4023 83.1868 12.681 84.2733 13.2939C85.3599 13.879 86.1957 14.6591 86.7808 15.6064V12.681H93.0496V33.1031H86.7808V30.2056C86.1679 31.1528 85.3321 31.9329 84.2455 32.518C83.1589 33.1031 81.9051 33.4096 80.4564 33.4096C78.7847 33.4096 77.2802 32.9638 75.915 32.1001C74.5498 31.2364 73.4632 30.0105 72.6831 28.3946C71.903 26.8065 71.4851 24.9398 71.4851 22.8502C71.4851 20.7607 71.8752 18.9218 72.6831 17.3338ZM85.4992 19.2004C84.6355 18.3089 83.5768 17.8353 82.3231 17.8353C81.0693 17.8353 80.0106 18.281 79.1469 19.1726C78.2832 20.0641 77.8374 21.29 77.8374 22.8502C77.8374 24.4105 78.2832 25.6642 79.1469 26.5558C80.0106 27.4752 81.0693 27.921 82.3231 27.921C83.5768 27.921 84.6355 27.4752 85.4992 26.5558C86.3629 25.6642 86.8087 24.4105 86.8087 22.8502C86.8087 21.29 86.3629 20.092 85.4992 19.2004Z" fill="white"/>
<path d="M118.459 12.6807L105.643 42.7985H98.9005L103.581 32.4063L95.2786 12.6807H102.272L106.98 25.4689L111.661 12.6807H118.459Z" fill="white"/>
<path d="M124.616 32.128C123.028 31.2643 121.774 30.0663 120.855 28.4782C119.936 26.8901 119.49 25.0513 119.49 22.906C119.49 20.8164 119.963 18.9497 120.883 17.3616C121.802 15.7735 123.084 14.5476 124.7 13.684C126.316 12.8203 128.127 12.4023 130.105 12.4023C132.111 12.4023 133.922 12.8203 135.51 13.684C137.126 14.5476 138.38 15.7735 139.327 17.3616C140.246 18.9497 140.72 20.8164 140.72 22.906C140.72 24.9955 140.246 26.8622 139.299 28.4503C138.352 30.0384 137.07 31.2643 135.454 32.128C133.838 32.9917 132.027 33.4096 130.021 33.4096C128.015 33.4096 126.204 32.9638 124.616 32.128ZM133.058 26.6672C133.894 25.7757 134.312 24.5219 134.312 22.906C134.312 21.29 133.894 20.0084 133.086 19.1447C132.278 18.2532 131.275 17.8353 130.077 17.8353C128.851 17.8353 127.848 18.281 127.04 19.1447C126.232 20.0084 125.842 21.2622 125.842 22.9338C125.842 24.5776 126.232 25.8314 127.04 26.6951C127.82 27.5866 128.823 28.0045 130.021 28.0045C131.219 27.9767 132.222 27.5309 133.058 26.6672Z" fill="white"/>
<path d="M162.201 14.7983C163.622 16.3586 164.346 18.476 164.346 21.1785V33.1031H158.133V22.0144C158.133 20.6492 157.771 19.5904 157.074 18.8382C156.378 18.0859 155.403 17.6959 154.233 17.6959C153.034 17.6959 152.087 18.0859 151.391 18.8382C150.694 19.5904 150.332 20.6492 150.332 22.0144V33.1031H144.063V12.6809H150.304V15.3834C150.945 14.4919 151.781 13.7675 152.867 13.2381C153.954 12.7088 155.152 12.458 156.489 12.458C158.857 12.458 160.78 13.2381 162.201 14.7983Z" fill="white"/>
<path d="M187.861 24.3826H173.707C173.791 25.6642 174.209 26.6115 174.933 27.2802C175.658 27.9488 176.549 28.2832 177.58 28.2832C179.14 28.2832 180.227 27.6145 180.84 26.305H187.499C187.164 27.6424 186.551 28.8683 185.66 29.927C184.768 31.0136 183.654 31.8494 182.316 32.4623C180.979 33.0753 179.475 33.3818 177.803 33.3818C175.797 33.3818 174.014 32.9638 172.454 32.1001C170.893 31.2365 169.668 30.0384 168.804 28.4503C167.912 26.8623 167.494 25.0234 167.494 22.8781C167.494 20.7607 167.94 18.894 168.804 17.3059C169.668 15.7178 170.893 14.492 172.454 13.6561C174.014 12.7924 175.797 12.3745 177.831 12.3745C179.809 12.3745 181.564 12.7924 183.097 13.6283C184.629 14.4641 185.827 15.6343 186.691 17.1666C187.554 18.699 188 20.5099 188 22.5438C187.944 23.1567 187.917 23.7697 187.861 24.3826ZM181.564 20.9279C181.564 19.8413 181.202 19.0054 180.478 18.3646C179.753 17.7238 178.834 17.4174 177.719 17.4174C176.661 17.4174 175.797 17.7238 175.073 18.3368C174.348 18.9497 173.902 19.8134 173.735 20.9279H181.564Z" fill="white"/>
<path d="M161.448 8.1395V3.12451H164.82V3.98821H162.424V5.29768H164.43V6.07778H162.424V8.16736H161.448V8.1395Z" fill="white"/>
<path d="M165.711 3.9048V2.95752H166.658V3.9048H165.711ZM165.711 8.13968V4.43416H166.658V8.13968H165.711Z" fill="white"/>
<path d="M171.256 8.1396H170.308V6.07789C170.308 5.77141 170.253 5.57639 170.141 5.43708C170.03 5.29778 169.89 5.24205 169.695 5.24205C169.556 5.24205 169.445 5.26991 169.305 5.32564C169.166 5.38136 169.055 5.4928 168.943 5.60425C168.832 5.71569 168.776 5.855 168.72 5.9943V8.1396H167.773V4.46194H168.637V5.15847C168.72 4.9913 168.86 4.852 168.999 4.76841C169.138 4.65697 169.305 4.57339 169.5 4.51767C169.695 4.46194 169.89 4.43408 170.113 4.43408C170.336 4.43408 170.531 4.46194 170.67 4.54553C170.81 4.62911 170.921 4.74055 171.005 4.87986C171.088 5.01916 171.144 5.18633 171.172 5.3535C171.2 5.52066 171.228 5.68783 171.228 5.88286V8.1396H171.256Z" fill="white"/>
<path d="M174.571 7.97219C174.487 8.00005 174.404 8.05577 174.292 8.08364C174.181 8.13936 174.069 8.16722 173.93 8.19508C173.791 8.22294 173.679 8.22294 173.54 8.22294C173.373 8.22294 173.206 8.19508 173.066 8.13936C172.927 8.08364 172.816 7.97219 172.704 7.86075C172.621 7.72144 172.565 7.55428 172.565 7.33139V5.18609H172.063V4.4617H172.565V3.26367H173.512V4.4617H174.292V5.18609H173.512V6.96919C173.512 7.1085 173.54 7.19208 173.624 7.2478C173.707 7.30353 173.763 7.33139 173.874 7.33139C173.986 7.33139 174.069 7.30353 174.153 7.27566C174.237 7.2478 174.32 7.21994 174.376 7.19208L174.571 7.97219Z" fill="white"/>
<path d="M177.023 8.22319C176.716 8.22319 176.466 8.16746 176.215 8.08388C175.964 7.97244 175.769 7.83313 175.602 7.66597C175.435 7.4988 175.295 7.30377 175.212 7.05302C175.128 6.80227 175.073 6.57938 175.073 6.32863C175.073 5.96644 175.156 5.65997 175.323 5.38136C175.49 5.10275 175.713 4.852 175.992 4.68483C176.298 4.51767 176.633 4.43408 177.051 4.43408C177.469 4.43408 177.803 4.51767 178.082 4.68483C178.36 4.852 178.583 5.10275 178.75 5.38136C178.917 5.65997 178.973 5.96644 178.973 6.30077C178.973 6.3565 178.973 6.41222 178.973 6.46794C178.973 6.52366 178.973 6.57938 178.945 6.60724H176.076C176.103 6.80227 176.159 6.94158 176.243 7.08088C176.326 7.22019 176.466 7.33163 176.605 7.38735C176.744 7.44308 176.911 7.4988 177.078 7.4988C177.274 7.4988 177.441 7.44308 177.608 7.35949C177.775 7.27591 177.886 7.1366 177.942 6.9973L178.75 7.22019C178.667 7.41522 178.527 7.58238 178.36 7.72169C178.193 7.86099 177.998 7.97244 177.775 8.05602C177.552 8.1396 177.301 8.22319 177.023 8.22319ZM176.048 6.02216H177.998C177.97 5.82714 177.914 5.68783 177.831 5.54852C177.747 5.40922 177.636 5.29778 177.496 5.24205C177.357 5.15847 177.19 5.13061 177.023 5.13061C176.856 5.13061 176.688 5.15847 176.549 5.24205C176.41 5.32564 176.298 5.43708 176.215 5.54852C176.131 5.65997 176.076 5.82714 176.048 6.02216Z" fill="white"/>
<path d="M181.564 8.22319C181.258 8.22319 180.979 8.16746 180.756 8.08388C180.533 8.0003 180.31 7.83313 180.143 7.66597C179.976 7.4988 179.837 7.27591 179.753 7.05302C179.669 6.83013 179.614 6.57938 179.614 6.32863C179.614 5.9943 179.697 5.65997 179.865 5.38136C180.032 5.10275 180.255 4.852 180.533 4.68483C180.84 4.51767 181.174 4.43408 181.564 4.43408C181.954 4.43408 182.316 4.51767 182.595 4.68483C182.874 4.852 183.096 5.07489 183.236 5.38136L182.316 5.65997C182.233 5.52066 182.121 5.40922 182.01 5.3535C181.898 5.29777 181.731 5.24205 181.564 5.24205C181.397 5.24205 181.23 5.29778 181.063 5.38136C180.923 5.46494 180.784 5.60425 180.7 5.77141C180.617 5.93858 180.561 6.13361 180.561 6.3565C180.561 6.57938 180.617 6.74655 180.7 6.91372C180.784 7.08088 180.895 7.22019 181.063 7.30377C181.202 7.38735 181.369 7.44308 181.564 7.44308C181.675 7.44308 181.787 7.41522 181.898 7.38735C182.01 7.35949 182.093 7.30377 182.177 7.22019C182.261 7.1366 182.316 7.08088 182.344 6.9973L183.264 7.27591C183.18 7.47094 183.041 7.6381 182.901 7.77741C182.734 7.91671 182.539 8.02816 182.316 8.11174C182.093 8.19533 181.843 8.22319 181.564 8.22319Z" fill="white"/>
<path d="M187.554 8.13965H186.607V6.07793C186.607 5.79932 186.551 5.57643 186.44 5.43713C186.328 5.29782 186.189 5.21424 185.994 5.21424C185.882 5.21424 185.771 5.2421 185.632 5.29782C185.492 5.35354 185.381 5.46499 185.297 5.57643C185.186 5.68788 185.13 5.82718 185.074 5.96649V8.11179H184.127V2.98535H185.074V5.15851C185.214 4.93563 185.409 4.7406 185.632 4.60129C185.855 4.46199 186.133 4.40627 186.412 4.40627C186.663 4.40627 186.858 4.43413 186.997 4.51771C187.136 4.60129 187.275 4.71274 187.359 4.85204C187.443 4.99135 187.498 5.13065 187.526 5.32568C187.554 5.49285 187.582 5.66001 187.582 5.85504V8.13965H187.554Z" fill="white"/>
<path d="M0.300049 28.0996C0.300049 23.0769 0.300049 18.0044 0.300049 12.8325C7.46118 11.9871 11.7877 8.00867 12.6331 0.449707C17.7553 0.449707 22.9272 0.449707 28.0991 0.449707C28.8451 15.9655 14.2742 28.9948 0.300049 28.0996Z" fill="white"/>
<path d="M28.1986 45.3803C22.9273 45.3803 17.8548 45.3803 12.6829 45.3803C12.6829 39.7111 12.6829 34.1413 12.6829 28.4224C17.8548 28.4224 22.977 28.4224 28.1986 28.4224C28.1986 34.0419 28.1986 39.6116 28.1986 45.3803Z" fill="white"/>
</svg>
