<svg width="512" height="512" viewBox="0 0 512 512" fill="none" xmlns="http://www.w3.org/2000/svg">
<path d="M504 256C504 392.967 392.967 504 256 504C119.033 504 8 392.967 8 256C8 119.033 119.033 8 256 8C392.967 8 504 119.033 504 256ZM362.349 220.67C367.286 187.671 342.158 169.931 307.799 158.097L318.945 113.395L291.732 106.614L280.881 150.138C273.727 148.355 266.379 146.674 259.078 145.008L270.007 101.198L242.809 94.417L231.656 139.103C225.734 137.754 219.921 136.421 214.279 135.019L214.31 134.879L176.78 125.509L169.541 154.571C169.541 154.571 189.732 159.198 189.306 159.484C200.328 162.235 202.32 169.528 201.986 175.309L189.29 226.234C190.05 226.428 191.034 226.707 192.119 227.141C191.212 226.916 190.243 226.668 189.243 226.428L171.447 297.766C170.098 301.114 166.68 306.136 158.976 304.23C159.247 304.625 139.196 299.293 139.196 299.293L125.686 330.44L161.1 339.267C167.688 340.918 174.145 342.646 180.5 344.273L169.238 389.486L196.42 396.267L207.573 351.534C214.782 353.488 222.011 355.363 229.26 357.161L218.145 401.684L245.358 408.465L256.62 363.337C303.024 372.118 337.919 368.576 352.606 326.61C364.442 292.82 352.017 273.329 327.602 260.619C345.382 256.521 358.776 244.827 362.349 220.67ZM300.172 307.849C291.762 341.639 234.864 323.372 216.417 318.792L231.361 258.893C249.807 263.496 308.961 272.61 300.172 307.849ZM308.589 220.182C300.916 250.918 253.558 235.302 238.196 231.474L251.744 177.147C267.107 180.975 316.58 188.12 308.589 220.182Z" fill="white"/>
</svg>
