<svg width="384" height="512" viewBox="0 0 384 512" fill="none" xmlns="http://www.w3.org/2000/svg">
<g clip-path="url(#clip0_505_18)">
<path d="M192 0C150.2 0 114.6 26.7 101.5 64H64C28.7 64 0 92.7 0 128V448C0 483.3 28.7 512 64 512H320C355.3 512 384 483.3 384 448V128C384 92.7 355.3 64 320 64H282.5C269.4 26.7 233.8 0 192 0ZM192 64C200.487 64 208.626 67.3714 214.627 73.3726C220.629 79.3737 224 87.5131 224 96C224 104.487 220.629 112.626 214.627 118.627C208.626 124.629 200.487 128 192 128C183.513 128 175.374 124.629 169.373 118.627C163.371 112.626 160 104.487 160 96C160 87.5131 163.371 79.3737 169.373 73.3726C175.374 67.3714 183.513 64 192 64ZM112 192H272C280.8 192 288 199.2 288 208C288 216.8 280.8 224 272 224H112C103.2 224 96 216.8 96 208C96 199.2 103.2 192 112 192Z" fill="white"/>
</g>
<defs>
<clipPath id="clip0_505_18">
<rect width="384" height="512" fill="white"/>
</clipPath>
</defs>
</svg>
