<svg width="512" height="512" viewBox="0 0 512 512" fill="none" xmlns="http://www.w3.org/2000/svg">
<g clip-path="url(#clip0_505_40)">
<path d="M31.9999 96H352V32C352 19.1 359.8 7.40001 371.8 2.40001C383.8 -2.59999 397.5 0.200006 406.7 9.30001L502.7 105.3C508.7 111.3 512.1 119.4 512.1 127.9C512.1 136.4 508.7 144.5 502.7 150.5L406.7 246.5C397.5 255.7 383.8 258.4 371.8 253.4C359.8 248.4 352 236.8 352 223.8V160H31.9999C14.2999 160 -9.76548e-05 145.7 -9.76548e-05 128C-9.76548e-05 110.3 14.2999 96 31.9999 96ZM480 352C497.7 352 512 366.3 512 384C512 401.7 497.7 416 480 416H160V480C160 492.9 152.2 504.6 140.2 509.6C128.2 514.6 114.5 511.8 105.3 502.7L9.2999 406.7C3.2999 400.7 -0.100098 392.6 -0.100098 384.1C-0.100098 375.6 3.2999 367.5 9.2999 361.5L105.3 265.5C114.5 256.3 128.2 253.6 140.2 258.6C152.2 263.6 160 275.2 160 288.2V352.2H480V352Z" fill="white"/>
</g>
<defs>
<clipPath id="clip0_505_40">
<rect width="512" height="512" fill="white"/>
</clipPath>
</defs>
</svg>
