<svg width="13" height="13" viewBox="0 0 13 13" fill="none" xmlns="http://www.w3.org/2000/svg">
<path d="M6.17884 5.53447C6.19755 5.68445 6.32829 5.78916 6.46938 5.78916C6.46973 5.78916 6.47013 5.78917 6.47057 5.78917C6.47801 5.7892 6.49845 5.78927 6.52182 5.78321L11.7891 5.00288C11.95 4.97903 12.061 4.82589 12.0374 4.66663C12.0136 4.50568 11.8604 4.3947 11.7011 4.41829L6.42738 5.19959C6.26689 5.22337 6.15608 5.3757 6.17884 5.53447Z" fill="#1F252D" stroke="#1F252D" stroke-width="0.2"/>
<path d="M6.28086 5.72418L6.28103 5.72397L1.00726 1.42682L1.00532 1.42525L1.00534 1.42522C0.882257 1.31972 0.865473 1.13823 0.96395 1.01079L0.965334 1.009L0.965354 1.00901C1.06492 0.886023 1.25338 0.859781 1.38057 0.967772L6.65323 5.26401C6.65329 5.26407 6.65336 5.26412 6.65342 5.26417L6.28086 5.72418ZM6.28086 5.72418L6.28685 5.72837C6.33909 5.76494 6.40169 5.78942 6.46921 5.78942C6.55376 5.78942 6.64012 5.75523 6.69689 5.67634L6.28086 5.72418Z" fill="#1F252D" stroke="#1F252D" stroke-width="0.2"/>
<path d="M5.45068 12.8202L5.45797 12.8213H5.46534H5.46538H5.46543H5.46548H5.46552H5.46557H5.46561H5.46566H5.46571H5.46575H5.4658H5.46585H5.46589H5.46594H5.46599H5.46604H5.46608H5.46613H5.46618H5.46622H5.46627H5.46632H5.46637H5.46641H5.46646H5.46651H5.46656H5.46661H5.46665H5.4667H5.46675H5.4668H5.46685H5.4669H5.46694H5.46699H5.46704H5.46709H5.46714H5.46719H5.46724H5.46729H5.46734H5.46739H5.46743H5.46748H5.46753H5.46758H5.46763H5.46768H5.46773H5.46778H5.46783H5.46788H5.46793H5.46798H5.46803H5.46808H5.46813H5.46818H5.46823H5.46828H5.46833H5.46839H5.46844H5.46849H5.46854H5.46859H5.46864H5.46869H5.46874H5.46879H5.46884H5.4689H5.46895H5.469H5.46905H5.4691H5.46915H5.46921H5.46926H5.46931H5.46936H5.46941H5.46947H5.46952H5.46957H5.46962H5.46967H5.46973H5.46978H5.46983H5.46988H5.46994H5.46999H5.47004H5.47009H5.47015H5.4702H5.47025H5.47031H5.47036H5.47041H5.47046H5.47052H5.47057H5.47062H5.47068H5.47073H5.47078H5.47084H5.47089H5.47094H5.471H5.47105H5.47111H5.47116H5.47121H5.47127H5.47132H5.47138H5.47143H5.47148H5.47154H5.47159H5.47165H5.4717H5.47175H5.47181H5.47186H5.47192H5.47197H5.47203H5.47208H5.47214H5.47219H5.47225H5.4723H5.47235H5.47241H5.47246H5.47252H5.47257H5.47263H5.47268H5.47274H5.47279H5.47285H5.4729H5.47296H5.47301H5.47307H5.47313H5.47318H5.47324H5.47329H5.47335H5.4734H5.47346H5.47351H5.47357H5.47363H5.47368H5.47374H5.47379H5.47385H5.4739H5.47396H5.47402H5.47407H5.47413H5.47418H5.47424H5.4743H5.47435H5.47441H5.47446H5.47452H5.47458H5.47463H5.47469H5.47474H5.4748H5.47486H5.47491H5.47497H5.47503H5.47508H5.47514H5.47519H5.47525H5.47531H5.47536H5.47542H5.47548H5.47553H5.47559H5.47565H5.4757H5.47576H5.47582H5.47587H5.47593H5.47599H5.47604H5.4761H5.47616H5.47621H5.47627H5.47633H5.47638H5.47644H5.4765H5.47656H5.47661H5.47667H5.47673H5.47678H5.47684H5.4769H5.47695H5.47701H5.47707H5.47713H5.47718H5.47724H5.4773H5.47735H5.47741H5.47747H5.47752H5.47758H5.47764H5.4777H5.47775H5.47781H5.47787H5.47792H5.47798H5.47804H5.4781H5.47815H5.47821H5.47827H5.47832H5.47838H5.47844H5.4785H5.47855H5.47861H5.47867H5.47873H5.47878H5.47884H5.4789H5.47895H5.47901H5.47907H5.47913H5.47918H5.47924H5.4793H5.47935H5.47941H5.47947H5.47953H5.47958H5.47964H5.4797H5.47976H5.47981H5.47987H5.47993H5.47998H5.48004H5.4801H5.48016H5.48021H5.48027H5.48033H5.48038H5.48044H5.4805H5.48056H5.48061H5.48067H5.48073H5.48078H5.48084H5.4809H5.48095H5.48101H5.48107H5.48113H5.48118H5.48124H5.4813H5.48135H5.48141H5.48147H5.48152H5.48158H5.48164H5.48169H5.48175H5.48181H5.48187H5.48192H5.48198H5.48204H5.48209H5.48215H5.48221H5.48226H5.48232H5.48238H5.48243H5.48249H5.48255H5.4826H5.48266H5.48271H5.48277H5.48283H5.48288H5.48294H5.483H5.48305H5.48311H5.48317H5.48322H5.48328H5.48333H5.48339H5.48345H5.4835H5.48356H5.48362H5.48367H5.48373H5.48378H5.48384H5.4839H5.48395H5.48401H5.48406H5.48412H5.48417H5.48423H5.48429H5.48434H5.4844H5.48445H5.48451H5.48456H5.48462H5.48468H5.48473H5.48479H5.48484H5.4849H5.48495H5.48501H5.48506H5.48512H5.48517H5.48523H5.48528H5.48534H5.48539H5.48545H5.4855H5.48556H5.48561H5.48567H5.48572H5.48578H5.48583H5.48589H5.48594H5.486H5.48605H5.48611H5.48616H5.48621H5.48627H5.48632H5.48638H5.48643H5.48649H5.48654H5.48659H5.48665H5.4867H5.48676H5.48681H5.48686H5.48692H5.48697H5.48702H5.48708H5.48713H5.48718H5.48724H5.48729H5.48735H5.4874H5.48745H5.4875H5.48756H5.48761H5.48766H5.48772H5.48777H5.48782H5.48788H5.48793H5.48798H5.48803H5.48809H5.48814H5.48819H5.48824H5.4883H5.48835H5.4884H5.48845H5.48851H5.48856H5.48861H5.48866H5.48871H5.48877H5.48882H5.48887H5.48892H5.48897H5.48902H5.48908H5.48913H5.48918H5.48923H5.48928H5.48933H5.48938H5.48943H5.48948H5.48954H5.48959H5.48964H5.48969H5.48974H5.48979H5.48984H5.48989H5.48994H5.48999H5.49004H5.49009H5.49014H5.49019H5.49024H5.49029H5.49034H5.49039H5.49044H5.49049H5.49054H5.49059H5.49064H5.49069H5.49074H5.49079H5.49083H5.49088H5.49093H5.49098H5.49103H5.49108H5.49113H5.49118H5.49122H5.49127H5.49132H5.49137H5.49142H5.49146H5.49151H5.49156H5.49161H5.49166H5.4917H5.49175H5.4918H5.49185H5.49189H5.49194H5.49199H5.49203H5.49208H5.49213H5.49218H5.49222H5.49227H5.49231H5.49236H5.49241H5.49245H5.4925H5.49255H5.49259H5.49264H5.49268C5.64013 12.8213 5.76347 12.7147 5.78675 12.5691L5.78677 12.5692L5.78706 12.5671L6.74685 5.65036L9.86755 2.90911L9.86756 2.90912L9.86864 2.90813C9.99015 2.7982 10.0032 2.61544 9.89701 2.49154L9.89704 2.49151L9.89524 2.48953C9.78531 2.36802 9.60255 2.35496 9.47864 2.46116L9.47864 2.46115L9.47774 2.46194L6.27441 5.27462L6.27441 5.27462L6.27396 5.27502C6.22134 5.3218 6.18683 5.38551 6.17534 5.45443L6.17531 5.45442L6.17493 5.45711L5.19831 12.4888L5.19827 12.4888L5.19797 12.4915C5.18037 12.6499 5.29139 12.7966 5.45068 12.8202Z" fill="#1F252D" stroke="#1F252D" stroke-width="0.2"/>
<path d="M0.918358 1.29833L0.918357 1.29833L0.918491 1.29868L5.21528 12.6266C5.25104 12.7265 5.33752 12.7953 5.43814 12.8145C5.46144 12.821 5.4798 12.821 5.49131 12.821L5.49275 12.821C5.58216 12.821 5.66496 12.7795 5.71859 12.714L5.71928 12.7131L11.9697 4.90013C12.0648 4.78123 12.0521 4.61067 11.9467 4.50522L11.946 4.50455L9.87795 2.47552C9.83232 2.42505 9.77578 2.40224 9.72356 2.3918L9.72357 2.39177L9.7212 2.39136L1.24423 0.906911L1.22685 1.00539L1.2441 0.906888L1.24415 0.906898C1.1461 0.889623 1.03314 0.922802 0.964611 1.01002C0.900706 1.09135 0.882294 1.20216 0.918358 1.29833ZM5.58661 11.9357L1.65616 1.57571L9.53112 2.95802L11.3468 4.73643L5.58661 11.9357Z" fill="#1F252D" stroke="#1F252D" stroke-width="0.2"/>
</svg>
